# xmcd
#
# Track frame offsets:
#	150
#	11963
#	25089
#	37807
#	52462
#	63748
#	74585
#	87753
#	99395
#	112677
#	126073
#	138058
#	153808
#	165921
#	177753
#	191313
#	202951
#	217432
#	228527
#	241176
#	253786
#	270306
#	281561
#	292165
#	301479
#	313583
#	325778
#	340756
#
# Disc length: 4686 seconds
#
# Revision: 0
# Processed by: cddbd v1.5.2PL0 Copyright (c) Steve Scherf et al.
# Submitted via: EasyCDDAExtractor 10.0.2.1
#
DISCID=8e124c1c
DTITLE=Various Artist - Memphis Blues (Important Postwar Recordings) - Disc C
DYEAR=2006
DGENRE=Blues
TTITLE0=Rosco Gordon - T Model Boogie
TTITLE1=Rosco Gordon - Saddled The Cow (And Milked The Horse)
TTITLE2=Willie Nix - Seems Like A Millon Years (Take 1)
TTITLE3=Willie Nix - Riding In The Moonlight
TTITLE4=L.B. Lawson - Can't Love Me And My Money Too
TTITLE5=L.B. Lawson - Flypaper Boogie
TTITLE6=Little Milton - Somebody Told Me
TTITLE7=Little Milton - If You Love Me
TTITLE8=Little Milton - Feelin' Good
TTITLE9=Little Milton - Fussin' And Fightin' Blues
TTITLE10=Billy 'Red' Love - Hart's Bread Boogie
TTITLE11=Billy 'Red' Love - Blues Leave Me Alone
TTITLE12=Joe Hill Louis - She Comes To See Me Sometime (Take 1)
TTITLE13=Joe Hill Louis - We All Gotta Go Sometime
TTITLE14=Honeyboy Edwards - Sweet Home Chicago (Take 1)
TTITLE15=Mose Vinson - Mistreating Boogie
TTITLE16=Mose Vinson - Worry You Off My Mind
TTITLE17=L.C. Hubert - Lucy Done Moved
TTITLE18=Eddie Snow - Don't Dog Me Around
TTITLE19=Eddie Snow - Skin And Bone (Take 1)
TTITLE20=Johnny O'Neal - Dead Letter Blues (Take 1)
TTITLE21=Johnny O'Neal - Ugly Woman (Take 3)
TTITLE22=Houston Stokes - You'll Be Sorry
TTITLE23=Houston Stokes - Blue And Lonsome
TTITLE24=Raymond Hill - Long Gone Raymond
TTITLE25=Raymond Hill - I'm Back Pretty Baby
TTITLE26=Kenneth Banks - Blue Man (Take 1)
TTITLE27=Kenneth Banks - High (Take 1)
EXTD=
EXTT0=
EXTT1=
EXTT2=
EXTT3=
EXTT4=
EXTT5=
EXTT6=
EXTT7=
EXTT8=
EXTT9=
EXTT10=
EXTT11=
EXTT12=
EXTT13=
EXTT14=
EXTT15=
EXTT16=
EXTT17=
EXTT18=
EXTT19=
EXTT20=
EXTT21=
EXTT22=
EXTT23=
EXTT24=
EXTT25=
EXTT26=
EXTT27=
PLAYORDER=
